<svg xmlns="http://www.w3.org/2000/svg" width="64" height="64" viewBox="0 0 64 64">
  <!-- 透明背景，只画 S -->
  <path d="M42 18c-2.6-1.9-5.7-2.9-9.1-2.9-7.4 0-12.9 4.3-12.9 10.3 0 4.9 3.2 7.4 8.4 8.8l3.3.9c3.7 1 5.3 2 5.3 4.2 0 2.5-2.5 4.2-6.4 4.2-3.2 0-6.3-1.1-8.6-3.2L19 43.4C22.1 46.7 26.2 48 31 48c8 0 13.7-4.1 13.7-10.6 0-5.2-3.4-7.7-8.9-9.2l-3.4-.9c-3.1-.8-4.6-1.7-4.6-3.7 0-2.3 2.2-3.8 5.7-3.8 2.8 0 5.3.9 7.4 2.5L42 18z" fill="none" stroke="#111827" stroke-width="2.4" stroke-linejoin="round"></path>
</svg>
